# MagicaVoxel @ Ephtracy

# group
o 

# material
mtllib Frog.mtl
usemtl palette

# normals
vn -1 0 0
vn 1 0 0
vn 0 0 1
vn 0 0 -1
vn 0 -1 0
vn 0 1 0

# texcoords
vt 0.908203 0.5
vt 0.912109 0.5
vt 0.939453 0.5
vt 0.943359 0.5
vt 0.947266 0.5
vt 0.955078 0.5
vt 0.966797 0.5

# verts
v -0.3 0.1 1.4
v -0.3 0.1 1
v -0.3 0.1 -1
v -0.3 0.1 -1.4
v -0.3 1.1 1.4
v -0.3 1.1 1
v -0.3 1.1 -1
v -0.3 1.1 -1.4
v -0.2 2.1 1.2
v -0.2 2.1 -1.2
v -0.2 3 1.2
v -0.2 3 -1.2
v -0.0999998 0 1.4
v -0.0999998 0 1
v -0.0999998 0 -1
v -0.0999998 0 -1.4
v -0.0999998 0.1 1.4
v -0.0999998 0.1 1
v -0.0999998 0.1 -1
v -0.0999998 0.1 -1.4
v 1.49012e-007 0.1 1
v 1.49012e-007 0.1 -1
v 1.49012e-007 1.1 1
v 1.49012e-007 1.1 -1
v 1.49012e-007 2.1 1
v 1.49012e-007 2.1 -1
v 0.1 3 1
v 0.1 3 -1
v 0.1 3.8 0.2
v 0.1 3.8 -0.2
v 0.1 4 1
v 0.1 4 0.2
v 0.1 4 -0.2
v 0.1 4 -1
v 0.8 0 1
v 0.8 0 0.9
v 0.8 0 -0.9
v 0.8 0 -1
v 0.8 0.1 1
v 0.8 0.1 0.9
v 0.8 0.1 -0.9
v 0.8 0.1 -1
v 1 0 1
v 1 0 0.9
v 1 0 0.8
v 1 0 0.7
v 1 0 -0.7
v 1 0 -0.8
v 1 0 -0.9
v 1 0 -1
v 1 0.1 0.9
v 1 0.1 0.8
v 1 0.1 0.7
v 1 0.1 -0.7
v 1 0.1 -0.8
v 1 0.1 -0.9
v 1 0.2 1
v 1 0.2 0.7
v 1 0.2 -0.7
v 1 0.2 -1
v 0.3 0 1.4
v 0.3 0 1
v 0.3 0 -1
v 0.3 0 -1.4
v 0.3 0.1 1.4
v 0.3 0.1 1
v 0.3 0.1 -1
v 0.3 0.1 -1.4
v 0.4 0.1 1.4
v 0.4 0.1 1
v 0.4 0.1 -1
v 0.4 0.1 -1.4
v 0.4 1.1 1.4
v 0.4 1.1 1
v 0.4 1.1 -1
v 0.4 1.1 -1.4
v 0.8 0.1 0.9
v 0.8 0.1 0.7
v 0.8 0.1 -0.7
v 0.8 0.1 -0.9
v 0.8 0.2 0.9
v 0.8 0.2 0.7
v 0.8 0.2 -0.7
v 0.8 0.2 -0.9
v 0.8 3 1
v 0.8 3 0.9
v 0.8 3 -0.9
v 0.8 3 -1
v 0.8 3.9 0.9
v 0.8 3.9 0.2
v 0.8 3.9 -0.2
v 0.8 3.9 -0.9
v 0.8 4 1
v 0.8 4 0.2
v 0.8 4 -0.2
v 0.8 4 -1
v 0.9 0 1
v 0.9 0 0.9
v 0.9 0 -0.9
v 0.9 0 -1
v 0.9 0.2 1
v 0.9 0.2 0.9
v 0.9 0.2 -0.9
v 0.9 0.2 -1
v 0.9 3 0.2
v 0.9 3 -0.2
v 0.9 3.8 0.2
v 0.9 3.8 -0.2
v 1 0.1 0.7
v 1 0.1 -0.7
v 1 0.3 0.6
v 1 0.3 -0.6
v 1 2.1 0.7
v 1 2.1 0.6
v 1 2.1 -0.6
v 1 2.1 -0.7
v 1 3 0.9
v 1 3 0.2
v 1 3 -0.2
v 1 3 -0.9
v 1 3.3 0.7
v 1 3.3 0.3
v 1 3.3 -0.3
v 1 3.3 -0.7
v 1 3.4 0.6
v 1 3.4 0.3
v 1 3.4 -0.4
v 1 3.4 -0.7
v 1 3.7 0.6
v 1 3.7 0.3
v 1 3.7 -0.4
v 1 3.7 -0.7
v 1 3.8 0.7
v 1 3.8 0.3
v 1 3.8 -0.3
v 1 3.8 -0.7
v 1 3.9 0.9
v 1 3.9 0.2
v 1 3.9 -0.2
v 1 3.9 -0.9
v 1.1 0 1
v 1.1 0 0.9
v 1.1 0 0.8
v 1.1 0 0.7
v 1.1 0 -0.7
v 1.1 0 -0.8
v 1.1 0 -0.9
v 1.1 0 -1
v 1.1 0.1 0.9
v 1.1 0.1 0.8
v 1.1 0.1 -0.8
v 1.1 0.1 -0.9
v 1.1 0.3 0.6
v 1.1 0.3 -0.6
v 1.1 2.1 1
v 1.1 2.1 0.7
v 1.1 2.1 0.6
v 1.1 2.1 -0.6
v 1.1 2.1 -0.7
v 1.1 2.1 -1
v 1.2 2.6 0.9
v 1.2 2.6 0.3
v 1.2 2.6 -0.3
v 1.2 2.6 -0.9
v 1.2 2.7 0.6
v 1.2 2.7 0.3
v 1.2 2.7 -0.3
v 1.2 2.7 -0.6
v 1.2 2.8 0.9
v 1.2 2.8 0.6
v 1.2 2.8 -0.6
v 1.2 2.8 -0.9
v 1.3 2.1 1.2
v 1.3 2.1 -1.2
v 1.3 2.4 0.3
v 1.3 2.4 -0.3
v 1.3 2.6 0.9
v 1.3 2.6 0.3
v 1.3 2.6 -0.3
v 1.3 2.6 -0.9
v 1.3 2.7 0.6
v 1.3 2.7 0.3
v 1.3 2.7 -0.3
v 1.3 2.7 -0.6
v 1.3 2.8 0.9
v 1.3 2.8 0.6
v 1.3 2.8 -0.6
v 1.3 2.8 -0.9
v 1.3 3 1.2
v 1.3 3 -1.2
v 1.4 2.4 0.3
v 1.4 2.4 -0.3
v 1.4 2.7 0.3
v 1.4 2.7 -0.3
v -0.3 0.1 1.4
v -0.3 1.1 1.4
v -0.0999998 0 1.4
v -0.0999998 0.1 1.4
v 0.3 0 1.4
v 0.3 0.1 1.4
v 0.4 0.1 1.4
v 0.4 1.1 1.4
v -0.2 2.1 1.2
v -0.2 3 1.2
v 1.3 2.1 1.2
v 1.3 3 1.2
v 1.49012e-007 1.1 1
v 1.49012e-007 2.1 1
v 0.1 3 1
v 0.1 4 1
v 0.4 0.1 1
v 0.4 1.1 1
v 0.8 0 1
v 0.8 0.1 1
v 0.8 3 1
v 0.8 4 1
v 0.9 0 1
v 0.9 0.2 1
v 1 0 1
v 1 0.2 1
v 1.1 0 1
v 1.1 2.1 1
v 0.8 3 0.9
v 0.8 3.9 0.9
v 1 3 0.9
v 1 3.9 0.9
v 1 0 0.8
v 1 0.1 0.8
v 1.1 0 0.8
v 1.1 0.1 0.8
v 0.8 0.1 0.7
v 0.8 0.2 0.7
v 1 0.1 0.7
v 1 0.2 0.7
v 1 0.3 0.6
v 1 2.1 0.6
v 1.1 0.3 0.6
v 1.1 2.1 0.6
v 1.2 2.7 0.6
v 1.2 2.8 0.6
v 1.3 2.7 0.6
v 1.3 2.8 0.6
v 1.2 2.6 0.3
v 1.2 2.7 0.3
v 1.3 2.4 0.3
v 1.3 2.6 0.3
v 1.3 2.7 0.3
v 1.4 2.4 0.3
v 1.4 2.7 0.3
v 0.1 3.8 -0.2
v 0.1 4 -0.2
v 0.8 3.8 -0.2
v 0.8 3.9 -0.2
v 0.8 4 -0.2
v 0.9 3 -0.2
v 0.9 3.8 -0.2
v 1 3 -0.2
v 1 3.9 -0.2
v 1 0 -0.7
v 1 0.1 -0.7
v 1 2.1 -0.7
v 1.1 0 -0.7
v 1.1 2.1 -0.7
v 0.8 0 -0.9
v 0.8 0.1 -0.9
v 0.8 0.2 -0.9
v 0.9 0 -0.9
v 0.9 0.2 -0.9
v 1 0 -0.9
v 1 0.1 -0.9
v 1.1 0 -0.9
v 1.1 0.1 -0.9
v 1.2 2.6 -0.9
v 1.2 2.8 -0.9
v 1.3 2.6 -0.9
v 1.3 2.8 -0.9
v -0.3 0.1 -1
v -0.3 1.1 -1
v -0.0999998 0 -1
v -0.0999998 0.1 -1
v 1.49012e-007 0.1 -1
v 1.49012e-007 1.1 -1
v 0.3 0 -1
v 0.3 0.1 -1
v -0.3 0.1 1
v -0.3 1.1 1
v -0.0999998 0 1
v -0.0999998 0.1 1
v 1.49012e-007 0.1 1
v 1.49012e-007 1.1 1
v 0.3 0 1
v 0.3 0.1 1
v 0.8 0 0.9
v 0.8 0.1 0.9
v 0.8 0.2 0.9
v 0.9 0 0.9
v 0.9 0.2 0.9
v 1 0 0.9
v 1 0.1 0.9
v 1.1 0 0.9
v 1.1 0.1 0.9
v 1.2 2.6 0.9
v 1.2 2.8 0.9
v 1.3 2.6 0.9
v 1.3 2.8 0.9
v 1 0 0.7
v 1 0.1 0.7
v 1 2.1 0.7
v 1.1 0 0.7
v 1.1 2.1 0.7
v 0.1 3.8 0.2
v 0.1 4 0.2
v 0.8 3.8 0.2
v 0.8 3.9 0.2
v 0.8 4 0.2
v 0.9 3 0.2
v 0.9 3.8 0.2
v 1 3 0.2
v 1 3.9 0.2
v 1.2 2.6 -0.3
v 1.2 2.7 -0.3
v 1.3 2.4 -0.3
v 1.3 2.6 -0.3
v 1.3 2.7 -0.3
v 1.4 2.4 -0.3
v 1.4 2.7 -0.3
v 1 0.3 -0.6
v 1 2.1 -0.6
v 1.1 0.3 -0.6
v 1.1 2.1 -0.6
v 1.2 2.7 -0.6
v 1.2 2.8 -0.6
v 1.3 2.7 -0.6
v 1.3 2.8 -0.6
v 0.8 0.1 -0.7
v 0.8 0.2 -0.7
v 1 0.1 -0.7
v 1 0.2 -0.7
v 1 0 -0.8
v 1 0.1 -0.8
v 1.1 0 -0.8
v 1.1 0.1 -0.8
v 0.8 3 -0.9
v 0.8 3.9 -0.9
v 1 3 -0.9
v 1 3.9 -0.9
v 1.49012e-007 1.1 -1
v 1.49012e-007 2.1 -1
v 0.1 3 -1
v 0.1 4 -1
v 0.4 0.1 -1
v 0.4 1.1 -1
v 0.8 0 -1
v 0.8 0.1 -1
v 0.8 3 -1
v 0.8 4 -1
v 0.9 0 -1
v 0.9 0.2 -1
v 1 0 -1
v 1 0.2 -1
v 1.1 0 -1
v 1.1 2.1 -1
v -0.2 2.1 -1.2
v -0.2 3 -1.2
v 1.3 2.1 -1.2
v 1.3 3 -1.2
v -0.3 0.1 -1.4
v -0.3 1.1 -1.4
v -0.0999998 0 -1.4
v -0.0999998 0.1 -1.4
v 0.3 0 -1.4
v 0.3 0.1 -1.4
v 0.4 0.1 -1.4
v 0.4 1.1 -1.4
v -0.0999998 0 1.4
v 0.3 0 1.4
v -0.0999998 0 1
v 0.3 0 1
v 0.8 0 1
v 0.9 0 1
v 1 0 1
v 1.1 0 1
v 0.8 0 0.9
v 0.9 0 0.9
v 1 0 0.9
v 1.1 0 0.9
v 1 0 0.8
v 1.1 0 0.8
v 1 0 0.7
v 1.1 0 0.7
v 1 0 -0.7
v 1.1 0 -0.7
v 1 0 -0.8
v 1.1 0 -0.8
v 0.8 0 -0.9
v 0.9 0 -0.9
v 1 0 -0.9
v 1.1 0 -0.9
v -0.0999998 0 -1
v 0.3 0 -1
v 0.8 0 -1
v 0.9 0 -1
v 1 0 -1
v 1.1 0 -1
v -0.0999998 0 -1.4
v 0.3 0 -1.4
v -0.3 0.1 1.4
v -0.0999998 0.1 1.4
v 0.3 0.1 1.4
v 0.4 0.1 1.4
v -0.3 0.1 1
v -0.0999998 0.1 1
v 1.49012e-007 0.1 1
v 0.3 0.1 1
v 0.4 0.1 1
v 0.8 0.1 1
v 0.8 0.1 0.9
v 1 0.1 0.9
v 1.1 0.1 0.9
v 1 0.1 0.8
v 1.1 0.1 0.8
v 0.8 0.1 0.7
v 1 0.1 0.7
v 0.8 0.1 -0.7
v 1 0.1 -0.7
v 1 0.1 -0.8
v 1.1 0.1 -0.8
v 0.8 0.1 -0.9
v 1 0.1 -0.9
v 1.1 0.1 -0.9
v -0.3 0.1 -1
v -0.0999998 0.1 -1
v 1.49012e-007 0.1 -1
v 0.3 0.1 -1
v 0.4 0.1 -1
v 0.8 0.1 -1
v -0.3 0.1 -1.4
v -0.0999998 0.1 -1.4
v 0.3 0.1 -1.4
v 0.4 0.1 -1.4
v 0.9 0.2 1
v 1 0.2 1
v 0.8 0.2 0.9
v 0.9 0.2 0.9
v 0.8 0.2 0.7
v 1 0.2 0.7
v 0.8 0.2 -0.7
v 1 0.2 -0.7
v 0.8 0.2 -0.9
v 0.9 0.2 -0.9
v 0.9 0.2 -1
v 1 0.2 -1
v 1 0.3 0.6
v 1.1 0.3 0.6
v 1 0.3 -0.6
v 1.1 0.3 -0.6
v -0.2 2.1 1.2
v 1.3 2.1 1.2
v 1.49012e-007 2.1 1
v 1.1 2.1 1
v 1 2.1 0.7
v 1.1 2.1 0.7
v 1 2.1 0.6
v 1.1 2.1 0.6
v 1 2.1 -0.6
v 1.1 2.1 -0.6
v 1 2.1 -0.7
v 1.1 2.1 -0.7
v 1.49012e-007 2.1 -1
v 1.1 2.1 -1
v -0.2 2.1 -1.2
v 1.3 2.1 -1.2
v 1.3 2.4 0.3
v 1.4 2.4 0.3
v 1.3 2.4 -0.3
v 1.4 2.4 -0.3
v 1.2 2.7 0.6
v 1.3 2.7 0.6
v 1.2 2.7 0.3
v 1.3 2.7 0.3
v 1.2 2.7 -0.3
v 1.3 2.7 -0.3
v 1.2 2.7 -0.6
v 1.3 2.7 -0.6
v 1.2 2.8 0.9
v 1.3 2.8 0.9
v 1.2 2.8 0.6
v 1.3 2.8 0.6
v 1.2 2.8 -0.6
v 1.3 2.8 -0.6
v 1.2 2.8 -0.9
v 1.3 2.8 -0.9
v -0.3 1.1 1.4
v 0.4 1.1 1.4
v -0.3 1.1 1
v 1.49012e-007 1.1 1
v 0.4 1.1 1
v -0.3 1.1 -1
v 1.49012e-007 1.1 -1
v 0.4 1.1 -1
v -0.3 1.1 -1.4
v 0.4 1.1 -1.4
v 1.2 2.6 0.9
v 1.3 2.6 0.9
v 1.2 2.6 0.3
v 1.3 2.6 0.3
v 1.2 2.6 -0.3
v 1.3 2.6 -0.3
v 1.2 2.6 -0.9
v 1.3 2.6 -0.9
v 1.3 2.7 0.3
v 1.4 2.7 0.3
v 1.3 2.7 -0.3
v 1.4 2.7 -0.3
v -0.2 3 1.2
v 1.3 3 1.2
v 0.1 3 1
v 0.8 3 1
v 0.8 3 0.9
v 1 3 0.9
v 0.9 3 0.2
v 1 3 0.2
v 0.9 3 -0.2
v 1 3 -0.2
v 0.8 3 -0.9
v 1 3 -0.9
v 0.1 3 -1
v 0.8 3 -1
v -0.2 3 -1.2
v 1.3 3 -1.2
v 0.1 3.8 0.2
v 0.8 3.8 0.2
v 0.9 3.8 0.2
v 0.1 3.8 -0.2
v 0.8 3.8 -0.2
v 0.9 3.8 -0.2
v 0.8 3.9 0.9
v 1 3.9 0.9
v 0.8 3.9 0.2
v 1 3.9 0.2
v 0.8 3.9 -0.2
v 1 3.9 -0.2
v 0.8 3.9 -0.9
v 1 3.9 -0.9
v 0.1 4 1
v 0.8 4 1
v 0.1 4 0.2
v 0.8 4 0.2
v 0.1 4 -0.2
v 0.8 4 -0.2
v 0.1 4 -1
v 0.8 4 -1

# faces
f 5/3/1 2/3/1 1/3/1
f 6/3/1 2/3/1 5/3/1
f 7/3/1 4/3/1 3/3/1
f 8/3/1 4/3/1 7/3/1
f 11/3/1 10/3/1 9/3/1
f 12/3/1 10/3/1 11/3/1
f 17/3/1 14/3/1 13/3/1
f 18/3/1 14/3/1 17/3/1
f 19/3/1 16/3/1 15/3/1
f 20/3/1 16/3/1 19/3/1
f 23/3/1 22/3/1 21/3/1
f 24/3/1 22/3/1 23/3/1
f 25/3/1 24/3/1 23/3/1
f 26/3/1 24/3/1 25/3/1
f 29/3/1 28/3/1 27/3/1
f 30/3/1 28/3/1 29/3/1
f 31/3/1 29/3/1 27/3/1
f 32/3/1 29/3/1 31/3/1
f 33/3/1 28/3/1 30/3/1
f 34/3/1 28/3/1 33/3/1
f 39/3/1 36/3/1 35/3/1
f 40/3/1 36/3/1 39/3/1
f 41/3/1 38/3/1 37/3/1
f 42/3/1 38/3/1 41/3/1
f 51/3/1 44/3/1 43/3/1
f 52/3/1 46/3/1 45/3/1
f 53/3/1 46/3/1 52/3/1
f 54/3/1 48/3/1 47/3/1
f 55/3/1 48/3/1 54/3/1
f 56/3/1 50/3/1 49/3/1
f 57/3/1 51/3/1 43/3/1
f 57/3/1 53/3/1 52/3/1
f 57/3/1 52/3/1 51/3/1
f 58/3/1 53/3/1 57/3/1
f 59/3/1 55/3/1 54/3/1
f 59/3/1 56/3/1 55/3/1
f 60/3/1 50/3/1 56/3/1
f 60/3/1 56/3/1 59/3/1
f 61/3/2 62/3/2 65/3/2
f 65/3/2 62/3/2 66/3/2
f 63/3/2 64/3/2 67/3/2
f 67/3/2 64/3/2 68/3/2
f 69/3/2 70/3/2 73/3/2
f 73/3/2 70/3/2 74/3/2
f 71/3/2 72/3/2 75/3/2
f 75/3/2 72/3/2 76/3/2
f 77/3/2 78/3/2 81/3/2
f 81/3/2 78/3/2 82/3/2
f 79/3/2 80/3/2 83/3/2
f 83/3/2 80/3/2 84/3/2
f 85/3/2 86/3/2 89/3/2
f 87/3/2 88/3/2 92/3/2
f 89/3/2 90/3/2 93/3/2
f 85/3/2 89/3/2 93/3/2
f 93/3/2 90/3/2 94/3/2
f 91/3/2 92/3/2 95/3/2
f 92/3/2 88/3/2 96/3/2
f 95/3/2 92/3/2 96/3/2
f 97/3/2 98/3/2 101/3/2
f 101/3/2 98/3/2 102/3/2
f 99/3/2 100/3/2 103/3/2
f 103/3/2 100/3/2 104/3/2
f 105/3/2 106/3/2 107/3/2
f 107/3/2 106/3/2 108/3/2
f 109/3/2 110/3/2 111/3/2
f 111/3/2 110/3/2 112/3/2
f 109/3/2 111/3/2 113/3/2
f 113/3/2 111/3/2 114/3/2
f 112/3/2 110/3/2 115/3/2
f 115/3/2 110/3/2 116/3/2
f 117/5/2 118/5/2 121/5/2
f 121/5/2 118/5/2 122/5/2
f 119/5/2 120/5/2 123/5/2
f 123/5/2 120/5/2 124/5/2
f 121/7/2 122/7/2 125/7/2
f 122/5/2 118/5/2 126/5/2
f 125/7/2 122/7/2 126/7/2
f 123/7/2 124/7/2 127/7/2
f 124/5/2 120/5/2 128/5/2
f 127/7/2 124/7/2 128/7/2
f 121/7/2 125/7/2 129/7/2
f 125/6/2 126/6/2 129/6/2
f 126/5/2 118/5/2 130/5/2
f 129/6/2 126/6/2 130/6/2
f 123/7/2 127/7/2 131/7/2
f 127/6/2 128/6/2 131/6/2
f 128/5/2 120/5/2 132/5/2
f 131/6/2 128/6/2 132/6/2
f 117/5/2 121/5/2 133/5/2
f 121/7/2 129/7/2 133/7/2
f 129/7/2 130/7/2 133/7/2
f 130/5/2 118/5/2 134/5/2
f 133/7/2 130/7/2 134/7/2
f 123/7/2 131/7/2 135/7/2
f 119/5/2 123/5/2 135/5/2
f 131/7/2 132/7/2 135/7/2
f 132/5/2 120/5/2 136/5/2
f 135/7/2 132/7/2 136/7/2
f 117/5/2 133/5/2 137/5/2
f 133/5/2 134/5/2 137/5/2
f 134/5/2 118/5/2 138/5/2
f 137/5/2 134/5/2 138/5/2
f 119/5/2 135/5/2 139/5/2
f 135/5/2 136/5/2 139/5/2
f 136/5/2 120/5/2 140/5/2
f 139/5/2 136/5/2 140/5/2
f 141/3/2 142/3/2 149/3/2
f 143/3/2 144/3/2 150/3/2
f 145/3/2 146/3/2 151/3/2
f 147/3/2 148/3/2 152/3/2
f 141/3/2 149/3/2 155/3/2
f 149/3/2 150/3/2 155/3/2
f 150/3/2 144/3/2 156/3/2
f 155/3/2 150/3/2 156/3/2
f 153/1/2 154/1/2 157/1/2
f 157/1/2 154/1/2 158/1/2
f 145/3/2 151/3/2 159/3/2
f 151/3/2 152/3/2 159/3/2
f 152/3/2 148/3/2 160/3/2
f 159/3/2 152/3/2 160/3/2
f 161/4/2 162/4/2 165/4/2
f 165/4/2 162/4/2 166/4/2
f 163/4/2 164/4/2 167/4/2
f 167/4/2 164/4/2 168/4/2
f 161/4/2 165/4/2 169/4/2
f 169/4/2 165/4/2 170/4/2
f 168/4/2 164/4/2 171/4/2
f 171/4/2 164/4/2 172/4/2
f 173/3/2 174/3/2 175/3/2
f 175/3/2 174/3/2 176/3/2
f 173/3/2 175/3/2 177/3/2
f 177/3/2 175/3/2 178/3/2
f 176/3/2 174/3/2 179/3/2
f 179/3/2 174/3/2 180/3/2
f 173/3/2 177/3/2 185/3/2
f 183/5/2 184/5/2 186/5/2
f 181/5/2 182/5/2 186/5/2
f 182/5/2 183/5/2 186/5/2
f 186/5/2 184/5/2 187/5/2
f 180/3/2 174/3/2 188/3/2
f 186/3/2 187/3/2 189/3/2
f 187/3/2 188/3/2 189/3/2
f 173/3/2 185/3/2 189/3/2
f 185/3/2 186/3/2 189/3/2
f 188/3/2 174/3/2 190/3/2
f 189/3/2 188/3/2 190/3/2
f 191/2/2 192/2/2 193/2/2
f 193/2/2 192/2/2 194/2/2
f 198/3/3 196/3/3 195/3/3
f 199/3/3 198/3/3 197/3/3
f 200/3/3 196/3/3 198/3/3
f 200/3/3 198/3/3 199/3/3
f 201/3/3 196/3/3 200/3/3
f 202/3/3 196/3/3 201/3/3
f 205/3/3 204/3/3 203/3/3
f 206/3/3 204/3/3 205/3/3
f 212/3/3 208/3/3 207/3/3
f 214/3/3 212/3/3 211/3/3
f 215/3/3 210/3/3 209/3/3
f 216/3/3 210/3/3 215/3/3
f 217/3/3 214/3/3 213/3/3
f 218/3/3 212/3/3 214/3/3
f 218/3/3 214/3/3 217/3/3
f 220/3/3 212/3/3 218/3/3
f 221/3/3 220/3/3 219/3/3
f 222/3/3 208/3/3 212/3/3
f 222/3/3 220/3/3 221/3/3
f 222/3/3 212/3/3 220/3/3
f 225/5/3 224/5/3 223/5/3
f 226/5/3 224/5/3 225/5/3
f 229/3/3 228/3/3 227/3/3
f 230/3/3 228/3/3 229/3/3
f 233/3/3 232/3/3 231/3/3
f 234/3/3 232/3/3 233/3/3
f 237/1/3 236/1/3 235/1/3
f 238/1/3 236/1/3 237/1/3
f 241/5/3 240/5/3 239/5/3
f 242/5/3 240/5/3 241/5/3
f 246/2/3 244/2/3 243/2/3
f 247/2/3 244/2/3 246/2/3
f 248/2/3 246/2/3 245/2/3
f 248/2/3 247/2/3 246/2/3
f 249/2/3 247/2/3 248/2/3
f 252/3/3 251/3/3 250/3/3
f 253/3/3 251/3/3 252/3/3
f 254/3/3 251/3/3 253/3/3
f 256/5/3 253/5/3 252/5/3
f 257/5/3 256/5/3 255/5/3
f 258/5/3 253/5/3 256/5/3
f 258/5/3 256/5/3 257/5/3
f 262/3/3 260/3/3 259/3/3
f 262/3/3 261/3/3 260/3/3
f 263/3/3 261/3/3 262/3/3
f 267/3/3 265/3/3 264/3/3
f 267/3/3 266/3/3 265/3/3
f 268/3/3 266/3/3 267/3/3
f 271/3/3 270/3/3 269/3/3
f 272/3/3 270/3/3 271/3/3
f 275/3/3 274/3/3 273/3/3
f 276/3/3 274/3/3 275/3/3
f 280/3/3 278/3/3 277/3/3
f 281/3/3 278/3/3 280/3/3
f 281/3/3 280/3/3 279/3/3
f 282/3/3 278/3/3 281/3/3
f 283/3/3 281/3/3 279/3/3
f 284/3/3 281/3/3 283/3/3
f 285/3/4 286/3/4 288/3/4
f 288/3/4 286/3/4 289/3/4
f 287/3/4 288/3/4 289/3/4
f 289/3/4 286/3/4 290/3/4
f 287/3/4 289/3/4 291/3/4
f 291/3/4 289/3/4 292/3/4
f 293/3/4 294/3/4 296/3/4
f 294/3/4 295/3/4 296/3/4
f 296/3/4 295/3/4 297/3/4
f 298/3/4 299/3/4 300/3/4
f 300/3/4 299/3/4 301/3/4
f 302/3/4 303/3/4 304/3/4
f 304/3/4 303/3/4 305/3/4
f 306/3/4 307/3/4 309/3/4
f 307/3/4 308/3/4 309/3/4
f 309/3/4 308/3/4 310/3/4
f 311/3/4 312/3/4 313/3/4
f 313/3/4 312/3/4 314/3/4
f 314/3/4 312/3/4 315/3/4
f 313/5/4 314/5/4 317/5/4
f 316/5/4 317/5/4 318/5/4
f 317/5/4 314/5/4 319/5/4
f 318/5/4 317/5/4 319/5/4
f 320/2/4 321/2/4 323/2/4
f 323/2/4 321/2/4 324/2/4
f 322/2/4 323/2/4 325/2/4
f 323/2/4 324/2/4 325/2/4
f 325/2/4 324/2/4 326/2/4
f 327/1/4 328/1/4 329/1/4
f 329/1/4 328/1/4 330/1/4
f 331/5/4 332/5/4 333/5/4
f 333/5/4 332/5/4 334/5/4
f 335/3/4 336/3/4 337/3/4
f 337/3/4 336/3/4 338/3/4
f 339/3/4 340/3/4 341/3/4
f 341/3/4 340/3/4 342/3/4
f 343/5/4 344/5/4 345/5/4
f 345/5/4 344/5/4 346/5/4
f 347/3/4 348/3/4 352/3/4
f 351/3/4 352/3/4 354/3/4
f 349/3/4 350/3/4 355/3/4
f 355/3/4 350/3/4 356/3/4
f 353/3/4 354/3/4 357/3/4
f 354/3/4 352/3/4 358/3/4
f 357/3/4 354/3/4 358/3/4
f 358/3/4 352/3/4 360/3/4
f 359/3/4 360/3/4 361/3/4
f 352/3/4 348/3/4 362/3/4
f 361/3/4 360/3/4 362/3/4
f 360/3/4 352/3/4 362/3/4
f 363/3/4 364/3/4 365/3/4
f 365/3/4 364/3/4 366/3/4
f 367/3/4 368/3/4 370/3/4
f 369/3/4 370/3/4 371/3/4
f 370/3/4 368/3/4 372/3/4
f 371/3/4 370/3/4 372/3/4
f 372/3/4 368/3/4 373/3/4
f 373/3/4 368/3/4 374/3/4
f 377/3/5 376/3/5 375/3/5
f 378/3/5 376/3/5 377/3/5
f 383/3/5 380/3/5 379/3/5
f 384/3/5 380/3/5 383/3/5
f 385/3/5 382/3/5 381/3/5
f 386/3/5 382/3/5 385/3/5
f 389/3/5 388/3/5 387/3/5
f 390/3/5 388/3/5 389/3/5
f 393/3/5 392/3/5 391/3/5
f 394/3/5 392/3/5 393/3/5
f 401/3/5 396/3/5 395/3/5
f 402/3/5 396/3/5 401/3/5
f 403/3/5 398/3/5 397/3/5
f 404/3/5 398/3/5 403/3/5
f 405/3/5 400/3/5 399/3/5
f 406/3/5 400/3/5 405/3/5
f 411/3/5 408/3/5 407/3/5
f 412/3/5 408/3/5 411/3/5
f 414/3/5 410/3/5 409/3/5
f 415/3/5 410/3/5 414/3/5
f 417/3/5 416/3/5 415/3/5
f 417/3/5 415/3/5 414/3/5
f 417/3/5 414/3/5 413/3/5
f 420/3/5 419/3/5 418/3/5
f 421/3/5 419/3/5 420/3/5
f 422/3/5 417/3/5 413/3/5
f 424/3/5 422/3/5 413/3/5
f 424/3/5 423/3/5 422/3/5
f 425/3/5 423/3/5 424/3/5
f 428/3/5 424/3/5 413/3/5
f 429/3/5 427/3/5 426/3/5
f 430/3/5 427/3/5 429/3/5
f 433/3/5 428/3/5 413/3/5
f 434/3/5 428/3/5 433/3/5
f 435/3/5 428/3/5 434/3/5
f 436/3/5 428/3/5 435/3/5
f 437/3/5 432/3/5 431/3/5
f 438/3/5 432/3/5 437/3/5
f 439/3/5 435/3/5 434/3/5
f 440/3/5 435/3/5 439/3/5
f 444/3/5 442/3/5 441/3/5
f 445/3/5 444/3/5 443/3/5
f 446/3/5 442/3/5 444/3/5
f 446/3/5 444/3/5 445/3/5
f 449/3/5 448/3/5 447/3/5
f 450/3/5 448/3/5 449/3/5
f 451/3/5 448/3/5 450/3/5
f 452/3/5 448/3/5 451/3/5
f 455/1/5 454/1/5 453/1/5
f 456/1/5 454/1/5 455/1/5
f 459/3/5 458/3/5 457/3/5
f 460/3/5 458/3/5 459/3/5
f 462/3/5 458/3/5 460/3/5
f 463/3/5 462/3/5 461/3/5
f 464/3/5 458/3/5 462/3/5
f 464/3/5 462/3/5 463/3/5
f 466/3/5 458/3/5 464/3/5
f 467/3/5 466/3/5 465/3/5
f 468/3/5 458/3/5 466/3/5
f 468/3/5 466/3/5 467/3/5
f 469/3/5 459/3/5 457/3/5
f 470/3/5 458/3/5 468/3/5
f 471/3/5 469/3/5 457/3/5
f 471/3/5 470/3/5 469/3/5
f 472/3/5 458/3/5 470/3/5
f 472/3/5 470/3/5 471/3/5
f 475/2/5 474/2/5 473/2/5
f 476/2/5 474/2/5 475/2/5
f 479/5/5 478/5/5 477/5/5
f 480/5/5 478/5/5 479/5/5
f 483/5/5 482/5/5 481/5/5
f 484/5/5 482/5/5 483/5/5
f 487/3/5 486/3/5 485/3/5
f 488/3/5 486/3/5 487/3/5
f 491/3/5 490/3/5 489/3/5
f 492/3/5 490/3/5 491/3/5
f 493/3/6 494/3/6 495/3/6
f 495/3/6 494/3/6 496/3/6
f 496/3/6 494/3/6 497/3/6
f 498/3/6 499/3/6 501/3/6
f 499/3/6 500/3/6 501/3/6
f 501/3/6 500/3/6 502/3/6
f 503/3/6 504/3/6 505/3/6
f 505/3/6 504/3/6 506/3/6
f 507/3/6 508/3/6 509/3/6
f 509/3/6 508/3/6 510/3/6
f 511/2/6 512/2/6 513/2/6
f 513/2/6 512/2/6 514/2/6
f 515/3/6 516/3/6 517/3/6
f 517/3/6 516/3/6 518/3/6
f 518/3/6 516/3/6 519/3/6
f 519/3/6 516/3/6 520/3/6
f 520/3/6 516/3/6 522/3/6
f 521/3/6 522/3/6 523/3/6
f 522/3/6 516/3/6 524/3/6
f 523/3/6 522/3/6 524/3/6
f 524/3/6 516/3/6 526/3/6
f 515/3/6 517/3/6 527/3/6
f 525/3/6 526/3/6 528/3/6
f 515/3/6 527/3/6 529/3/6
f 527/3/6 528/3/6 529/3/6
f 528/3/6 526/3/6 530/3/6
f 529/3/6 528/3/6 530/3/6
f 526/3/6 516/3/6 530/3/6
f 531/3/6 532/3/6 534/3/6
f 532/3/6 533/3/6 534/3/6
f 534/3/6 533/3/6 535/3/6
f 535/3/6 533/3/6 536/3/6
f 537/5/6 538/5/6 539/5/6
f 539/5/6 538/5/6 540/5/6
f 541/5/6 542/5/6 543/5/6
f 543/5/6 542/5/6 544/5/6
f 545/3/6 546/3/6 547/3/6
f 547/3/6 546/3/6 548/3/6
f 549/3/6 550/3/6 551/3/6
f 551/3/6 550/3/6 552/3/6
