# MagicaVoxel @ Ephtracy

# group
o 

# material
mtllib Tree.mtl
usemtl palette

# normals
vn -1 0 0
vn 1 0 0
vn 0 0 1
vn 0 0 -1
vn 0 -1 0
vn 0 1 0

# texcoords
vt 0.388672 0.5
vt 0.576172 0.5

# verts
v -1.6 3.3 0.6
v -1.6 3.3 -1.5
v -1.6 4.4 0.6
v -1.6 4.4 -1.5
v -1.2 2.9 1.9
v -1.2 2.9 0.5
v -1.2 3.3 0.6
v -1.2 3.3 0.5
v -1.2 4 1.9
v -1.2 4 0.6
v -1.1 0 0.4
v -1.1 0 -0.3
v -1.1 0.4 0.4
v -1.1 0.4 -0.3
v -0.9 2.6 -0.1
v -0.9 2.6 -0.5
v -0.9 3.1 -0.5
v -0.9 3.1 -1.2
v -0.9 3.3 -0.1
v -0.9 3.3 -1.2
v -0.8 0 -0.3
v -0.8 0 -0.7
v -0.8 0.2 -0.3
v -0.8 0.2 -0.7
v -0.7 0 0.7
v -0.7 0 0.4
v -0.7 0.4 0.4
v -0.7 0.4 -0.1
v -0.7 0.8 0.7
v -0.7 0.8 -0.1
v -0.7 4 1.4
v -0.7 4 0.6
v -0.7 4.4 0.6
v -0.7 4.4 -0.9
v -0.7 4.6 1.4
v -0.7 4.6 0.8
v -0.7 5 0.8
v -0.7 5 -0.9
v -0.5 0 1.1
v -0.5 0 0.7
v -0.5 0.3 1.1
v -0.5 0.3 0.7
v -0.4 0.8 0.5
v -0.4 0.8 0
v -0.4 2 0
v -0.4 2 -0.5
v -0.4 2.4 0.1
v -0.4 2.4 -0.1
v -0.4 2.6 -0.1
v -0.4 2.6 -0.5
v -0.4 2.9 0.5
v -0.4 3.3 0.5
v -0.4 3.3 0.1
v -0.3 2 1.3
v -0.3 2 0.5
v -0.3 2.4 1
v -0.3 2.4 0.5
v -0.3 2.9 1.3
v -0.3 2.9 1
v -0.2 0.8 0
v -0.2 0.8 -0.1
v -0.2 1.3 0
v -0.2 1.3 -0.1
v -0.1 3.4 -1.5
v -0.1 3.4 -1.8
v -0.1 4.4 -0.9
v -0.1 4.4 -1.5
v -0.1 4.6 -0.9
v -0.1 4.6 -1.8
v 0 3.5 -0.1
v 0 3.5 -0.9
v 0 3.8 -0.1
v 0 3.8 -0.9
v 0.1 3.5 0.4
v 0.1 3.5 0.1
v 0.1 3.8 0.4
v 0.1 3.8 0.1
v 0.2 2.8 -0.5
v 0.2 2.8 -1
v 0.2 3 -0.5
v 0.2 3 -0.8
v 0.2 3.4 -0.8
v 0.2 3.4 -1
v 0.4 4 1.7
v 0.4 4 1.4
v 0.4 4.1 1.7
v 0.4 4.1 1.4
v 0.6 2.6 0.2
v 0.6 2.6 -0.9
v 0.6 2.8 0.2
v 0.6 2.8 0.1
v 0.6 3.1 0.2
v 0.6 3.1 0.1
v 0.6 3.4 0.2
v 0.6 3.4 -0.9
v 0.8 3.5 0.1
v 0.8 3.5 -0.1
v 0.8 3.8 0.1
v 0.8 3.8 -0.1
v 1 2.3 -0.2
v 1 2.3 -0.5
v 1 2.6 -0.2
v 1 2.6 -0.5
v -0.6 3 -0.1
v -0.6 3 -0.5
v -0.6 3.1 -0.5
v -0.6 3.1 -1.2
v -0.6 3.3 -0.1
v -0.6 3.3 -1.2
v -0.1 2.4 -0.1
v -0.1 2.4 -0.5
v -0.1 2.7 -0.2
v -0.1 2.7 -0.5
v -0.1 3 -0.1
v -0.1 3 -0.2
v -0.1 3.3 0.1
v -0.1 3.3 -1.5
v -0.1 3.4 0.1
v -0.1 3.4 -1.5
v -0.1 3.5 0.4
v -0.1 3.5 -0.9
v -0.1 3.8 0.4
v -0.1 3.8 -0.9
v 0 2.4 1.3
v 0 2.4 1
v 0 2.9 1.3
v 0 2.9 1
v 0.1 0 1.1
v 0.1 0 0.7
v 0.1 0.3 1.1
v 0.1 0.3 0.7
v 0.1 0.8 0.5
v 0.1 0.8 0.2
v 0.1 1.3 0.2
v 0.1 1.3 0
v 0.1 2 1.3
v 0.1 2 0.5
v 0.1 2 0.1
v 0.1 2 0
v 0.1 2 -0.2
v 0.1 2.3 -0.2
v 0.1 2.3 -0.5
v 0.1 2.4 1.3
v 0.1 2.4 0.5
v 0.1 2.4 0.1
v 0.1 2.4 -0.5
v 0.1 3.1 0.2
v 0.1 3.1 0.1
v 0.1 3.4 0.2
v 0.1 3.4 0.1
v 0.2 0 -0.3
v 0.2 0 -0.7
v 0.2 0.2 0.7
v 0.2 0.2 0.4
v 0.2 0.2 -0.3
v 0.2 0.2 -0.7
v 0.2 0.4 0.4
v 0.2 0.4 -0.1
v 0.2 0.8 0.7
v 0.2 0.8 0.2
v 0.2 1.3 0.2
v 0.2 1.3 -0.1
v 0.3 2 0.5
v 0.3 2 0.1
v 0.3 2.8 0.4
v 0.3 2.8 0.1
v 0.3 2.9 0.5
v 0.3 2.9 0.4
v 0.4 2.7 -0.2
v 0.4 2.7 -0.5
v 0.4 2.8 -0.5
v 0.4 2.8 -1
v 0.4 3 -0.2
v 0.4 3 -0.8
v 0.4 3.4 -0.8
v 0.4 3.4 -1
v 0.4 4.1 1.4
v 0.4 4.1 0.8
v 0.4 4.6 1.4
v 0.4 4.6 0.8
v 0.5 0 0.4
v 0.5 0 -0.3
v 0.5 0.2 0.4
v 0.5 0.4 0.4
v 0.5 0.4 -0.3
v 0.5 2.9 1.9
v 0.5 2.9 0.4
v 0.5 3.1 1.7
v 0.5 3.1 0.4
v 0.5 4 1.9
v 0.5 4 1.7
v 0.8 4.7 0.8
v 0.8 4.7 -0.9
v 0.8 5 0.8
v 0.8 5 -0.9
v 0.9 0 0.7
v 0.9 0 0.4
v 0.9 0.2 0.7
v 0.9 0.2 0.4
v 0.9 2.8 0.4
v 0.9 2.8 0.2
v 0.9 3.1 0.4
v 0.9 3.1 0.2
v 1.3 2 -0.2
v 1.3 2 -0.5
v 1.3 2.6 -0.2
v 1.3 2.6 -0.5
v 1.5 3.4 -0.9
v 1.5 3.4 -1.8
v 1.5 3.5 0.1
v 1.5 3.5 -0.9
v 1.5 4.1 0.8
v 1.5 4.1 0.1
v 1.5 4.6 -0.9
v 1.5 4.6 -1.8
v 1.5 4.7 0.8
v 1.5 4.7 -0.9
v 1.6 3.1 1.7
v 1.6 3.1 0.2
v 1.6 3.5 0.2
v 1.6 3.5 0.1
v 1.6 4.1 1.7
v 1.6 4.1 0.1
v 1.7 2.6 0.2
v 1.7 2.6 -0.9
v 1.7 3.5 0.2
v 1.7 3.5 -0.9
v -1.2 2.9 1.9
v -1.2 4 1.9
v 0.5 2.9 1.9
v 0.5 4 1.9
v 0.4 4 1.7
v 0.4 4.1 1.7
v 0.5 3.1 1.7
v 0.5 4 1.7
v 1.6 3.1 1.7
v 1.6 4.1 1.7
v -0.7 4 1.4
v -0.7 4.6 1.4
v 0.4 4 1.4
v 0.4 4.1 1.4
v 0.4 4.6 1.4
v -0.3 2 1.3
v -0.3 2.9 1.3
v 0 2.4 1.3
v 0 2.9 1.3
v 0.1 2 1.3
v 0.1 2.4 1.3
v -0.5 0 1.1
v -0.5 0.3 1.1
v 0.1 0 1.1
v 0.1 0.3 1.1
v -0.7 4.6 0.8
v -0.7 5 0.8
v 0.4 4.1 0.8
v 0.4 4.6 0.8
v 0.8 4.7 0.8
v 0.8 5 0.8
v 1.5 4.1 0.8
v 1.5 4.7 0.8
v -0.7 0 0.7
v -0.7 0.8 0.7
v -0.5 0 0.7
v -0.5 0.3 0.7
v 0.1 0 0.7
v 0.1 0.3 0.7
v 0.2 0.2 0.7
v 0.2 0.8 0.7
v 0.9 0 0.7
v 0.9 0.2 0.7
v -1.6 3.3 0.6
v -1.6 4.4 0.6
v -1.2 3.3 0.6
v -1.2 4 0.6
v -0.7 4 0.6
v -0.7 4.4 0.6
v -0.4 0.8 0.5
v -0.4 2.9 0.5
v -0.3 2 0.5
v -0.3 2.4 0.5
v 0.1 0.8 0.5
v 0.1 2 0.5
v 0.1 2.4 0.5
v 0.3 2 0.5
v 0.3 2.9 0.5
v -1.1 0 0.4
v -1.1 0.4 0.4
v -0.7 0 0.4
v -0.7 0.4 0.4
v 0.2 0.2 0.4
v 0.2 0.4 0.4
v 0.3 2.8 0.4
v 0.3 2.9 0.4
v 0.5 0.2 0.4
v 0.5 0.4 0.4
v 0.5 2.9 0.4
v 0.5 3.1 0.4
v 0.9 2.8 0.4
v 0.9 3.1 0.4
v 0.1 0.8 0.2
v 0.1 1.3 0.2
v 0.2 0.8 0.2
v 0.2 1.3 0.2
v 0.6 2.6 0.2
v 0.6 2.8 0.2
v 0.9 2.8 0.2
v 0.9 3.1 0.2
v 1.6 3.1 0.2
v 1.6 3.5 0.2
v 1.7 2.6 0.2
v 1.7 3.5 0.2
v -0.9 2.6 -0.1
v -0.9 3.3 -0.1
v -0.6 3 -0.1
v -0.6 3.3 -0.1
v -0.4 2.4 -0.1
v -0.4 2.6 -0.1
v -0.1 2.4 -0.1
v -0.1 3 -0.1
v 0 3.5 -0.1
v 0 3.8 -0.1
v 0.8 3.5 -0.1
v 0.8 3.8 -0.1
v -0.1 2.7 -0.2
v -0.1 3 -0.2
v 0.1 2 -0.2
v 0.1 2.3 -0.2
v 0.4 2.7 -0.2
v 0.4 3 -0.2
v 1 2.3 -0.2
v 1 2.6 -0.2
v 1.3 2 -0.2
v 1.3 2.6 -0.2
v 0.2 3 -0.8
v 0.2 3.4 -0.8
v 0.4 3 -0.8
v 0.4 3.4 -0.8
v -0.1 3.5 -0.9
v -0.1 3.8 -0.9
v 0 3.5 -0.9
v 0 3.8 -0.9
v -0.3 2.4 1
v -0.3 2.9 1
v 0 2.4 1
v 0 2.9 1
v -1.2 2.9 0.5
v -1.2 3.3 0.5
v -0.4 2.9 0.5
v -0.4 3.3 0.5
v -0.1 3.5 0.4
v -0.1 3.8 0.4
v 0.1 3.5 0.4
v 0.1 3.8 0.4
v 0.5 0 0.4
v 0.5 0.2 0.4
v 0.9 0 0.4
v 0.9 0.2 0.4
v 0.1 3.1 0.2
v 0.1 3.4 0.2
v 0.6 3.1 0.2
v 0.6 3.4 0.2
v -0.4 2.4 0.1
v -0.4 3.3 0.1
v -0.1 3.3 0.1
v -0.1 3.4 0.1
v 0.1 2 0.1
v 0.1 2.4 0.1
v 0.1 3.1 0.1
v 0.1 3.4 0.1
v 0.1 3.5 0.1
v 0.1 3.8 0.1
v 0.3 2 0.1
v 0.3 2.8 0.1
v 0.6 2.8 0.1
v 0.6 3.1 0.1
v 0.8 3.5 0.1
v 0.8 3.8 0.1
v 1.5 3.5 0.1
v 1.5 4.1 0.1
v 1.6 3.5 0.1
v 1.6 4.1 0.1
v -0.4 0.8 0
v -0.4 2 0
v -0.2 0.8 0
v -0.2 1.3 0
v 0.1 1.3 0
v 0.1 2 0
v -0.7 0.4 -0.1
v -0.7 0.8 -0.1
v -0.2 0.8 -0.1
v -0.2 1.3 -0.1
v 0.2 0.4 -0.1
v 0.2 1.3 -0.1
v -1.1 0 -0.3
v -1.1 0.4 -0.3
v -0.8 0 -0.3
v -0.8 0.2 -0.3
v 0.2 0 -0.3
v 0.2 0.2 -0.3
v 0.5 0 -0.3
v 0.5 0.4 -0.3
v -0.9 2.6 -0.5
v -0.9 3.1 -0.5
v -0.6 3 -0.5
v -0.6 3.1 -0.5
v -0.4 2 -0.5
v -0.4 2.6 -0.5
v -0.1 2.4 -0.5
v -0.1 2.7 -0.5
v 0.1 2.3 -0.5
v 0.1 2.4 -0.5
v 0.2 2.8 -0.5
v 0.2 3 -0.5
v 0.4 2.7 -0.5
v 0.4 2.8 -0.5
v 1 2.3 -0.5
v 1 2.6 -0.5
v 1.3 2 -0.5
v 1.3 2.6 -0.5
v -0.8 0 -0.7
v -0.8 0.2 -0.7
v 0.2 0 -0.7
v 0.2 0.2 -0.7
v -0.7 4.4 -0.9
v -0.7 5 -0.9
v -0.1 4.4 -0.9
v -0.1 4.6 -0.9
v 0.6 2.6 -0.9
v 0.6 3.4 -0.9
v 0.8 4.7 -0.9
v 0.8 5 -0.9
v 1.5 3.4 -0.9
v 1.5 3.5 -0.9
v 1.5 4.6 -0.9
v 1.5 4.7 -0.9
v 1.7 2.6 -0.9
v 1.7 3.5 -0.9
v 0.2 2.8 -1
v 0.2 3.4 -1
v 0.4 2.8 -1
v 0.4 3.4 -1
v -0.9 3.1 -1.2
v -0.9 3.3 -1.2
v -0.6 3.1 -1.2
v -0.6 3.3 -1.2
v -1.6 3.3 -1.5
v -1.6 4.4 -1.5
v -0.1 3.3 -1.5
v -0.1 3.4 -1.5
v -0.1 4.4 -1.5
v -0.1 3.4 -1.8
v -0.1 4.6 -1.8
v 1.5 3.4 -1.8
v 1.5 4.6 -1.8
v -0.5 0 1.1
v 0.1 0 1.1
v -0.7 0 0.7
v -0.5 0 0.7
v 0.1 0 0.7
v 0.9 0 0.7
v -1.1 0 0.4
v -0.7 0 0.4
v 0.5 0 0.4
v 0.9 0 0.4
v -1.1 0 -0.3
v -0.8 0 -0.3
v 0.2 0 -0.3
v 0.5 0 -0.3
v -0.8 0 -0.7
v 0.2 0 -0.7
v -0.3 2 1.3
v 0.1 2 1.3
v -0.3 2 0.5
v 0.1 2 0.5
v 0.3 2 0.5
v 0.1 2 0.1
v 0.3 2 0.1
v -0.4 2 0
v 0.1 2 0
v 0.1 2 -0.2
v 1.3 2 -0.2
v -0.4 2 -0.5
v 1.3 2 -0.5
v 0.6 2.6 0.2
v 1.7 2.6 0.2
v -0.9 2.6 -0.1
v -0.4 2.6 -0.1
v 1 2.6 -0.2
v 1.3 2.6 -0.2
v -0.9 2.6 -0.5
v -0.4 2.6 -0.5
v 1 2.6 -0.5
v 1.3 2.6 -0.5
v 0.6 2.6 -0.9
v 1.7 2.6 -0.9
v -0.1 2.7 -0.2
v 0.4 2.7 -0.2
v -0.1 2.7 -0.5
v 0.4 2.7 -0.5
v 0.3 2.8 0.4
v 0.9 2.8 0.4
v 0.6 2.8 0.2
v 0.9 2.8 0.2
v 0.3 2.8 0.1
v 0.6 2.8 0.1
v 0.2 2.8 -0.5
v 0.4 2.8 -0.5
v 0.2 2.8 -1
v 0.4 2.8 -1
v -1.2 2.9 1.9
v 0.5 2.9 1.9
v -0.3 2.9 1.3
v 0 2.9 1.3
v -0.3 2.9 1
v 0 2.9 1
v -1.2 2.9 0.5
v -0.4 2.9 0.5
v 0.3 2.9 0.5
v 0.3 2.9 0.4
v 0.5 2.9 0.4
v 0.5 3.1 1.7
v 1.6 3.1 1.7
v 0.5 3.1 0.4
v 0.9 3.1 0.4
v 0.9 3.1 0.2
v 1.6 3.1 0.2
v -0.9 3.1 -0.5
v -0.6 3.1 -0.5
v -0.9 3.1 -1.2
v -0.6 3.1 -1.2
v -1.6 3.3 0.6
v -1.2 3.3 0.6
v -1.2 3.3 0.5
v -0.4 3.3 0.5
v -0.4 3.3 0.1
v -0.1 3.3 0.1
v -0.9 3.3 -0.1
v -0.6 3.3 -0.1
v -0.9 3.3 -1.2
v -0.6 3.3 -1.2
v -1.6 3.3 -1.5
v -0.1 3.3 -1.5
v 0.1 3.4 0.2
v 0.6 3.4 0.2
v -0.1 3.4 0.1
v 0.1 3.4 0.1
v 0.2 3.4 -0.8
v 0.4 3.4 -0.8
v 0.6 3.4 -0.9
v 1.5 3.4 -0.9
v 0.2 3.4 -1
v 0.4 3.4 -1
v -0.1 3.4 -1.5
v -0.1 3.4 -1.8
v 1.5 3.4 -1.8
v -0.1 3.8 0.4
v 0.1 3.8 0.4
v 0.1 3.8 0.1
v 0.8 3.8 0.1
v 0 3.8 -0.1
v 0.8 3.8 -0.1
v -0.1 3.8 -0.9
v 0 3.8 -0.9
v 0.2 0.2 0.7
v 0.9 0.2 0.7
v 0.2 0.2 0.4
v 0.5 0.2 0.4
v 0.9 0.2 0.4
v -0.8 0.2 -0.3
v 0.2 0.2 -0.3
v -0.8 0.2 -0.7
v 0.2 0.2 -0.7
v -0.5 0.3 1.1
v 0.1 0.3 1.1
v -0.5 0.3 0.7
v 0.1 0.3 0.7
v -1.1 0.4 0.4
v -0.7 0.4 0.4
v 0.2 0.4 0.4
v 0.5 0.4 0.4
v -0.7 0.4 -0.1
v 0.2 0.4 -0.1
v -1.1 0.4 -0.3
v 0.5 0.4 -0.3
v -0.7 0.8 0.7
v 0.2 0.8 0.7
v -0.4 0.8 0.5
v 0.1 0.8 0.5
v 0.1 0.8 0.2
v 0.2 0.8 0.2
v -0.4 0.8 0
v -0.2 0.8 0
v -0.7 0.8 -0.1
v -0.2 0.8 -0.1
v 0.1 1.3 0.2
v 0.2 1.3 0.2
v -0.2 1.3 0
v 0.1 1.3 0
v -0.2 1.3 -0.1
v 0.2 1.3 -0.1
v 0.1 2.3 -0.2
v 1 2.3 -0.2
v 0.1 2.3 -0.5
v 1 2.3 -0.5
v 0 2.4 1.3
v 0.1 2.4 1.3
v -0.3 2.4 1
v 0 2.4 1
v -0.3 2.4 0.5
v 0.1 2.4 0.5
v -0.4 2.4 0.1
v 0.1 2.4 0.1
v -0.4 2.4 -0.1
v -0.1 2.4 -0.1
v -0.1 2.4 -0.5
v 0.1 2.4 -0.5
v -0.6 3 -0.1
v -0.1 3 -0.1
v -0.1 3 -0.2
v 0.4 3 -0.2
v -0.6 3 -0.5
v 0.2 3 -0.5
v 0.2 3 -0.8
v 0.4 3 -0.8
v 0.1 3.1 0.2
v 0.6 3.1 0.2
v 0.1 3.1 0.1
v 0.6 3.1 0.1
v -0.1 3.5 0.4
v 0.1 3.5 0.4
v 1.6 3.5 0.2
v 1.7 3.5 0.2
v 0.1 3.5 0.1
v 0.8 3.5 0.1
v 1.5 3.5 0.1
v 1.6 3.5 0.1
v 0 3.5 -0.1
v 0.8 3.5 -0.1
v -0.1 3.5 -0.9
v 0 3.5 -0.9
v 1.5 3.5 -0.9
v 1.7 3.5 -0.9
v -1.2 4 1.9
v 0.5 4 1.9
v 0.4 4 1.7
v 0.5 4 1.7
v -0.7 4 1.4
v 0.4 4 1.4
v -1.2 4 0.6
v -0.7 4 0.6
v 0.4 4.1 1.7
v 1.6 4.1 1.7
v 0.4 4.1 1.4
v 0.4 4.1 0.8
v 1.5 4.1 0.8
v 1.5 4.1 0.1
v 1.6 4.1 0.1
v -1.6 4.4 0.6
v -0.7 4.4 0.6
v -0.7 4.4 -0.9
v -0.1 4.4 -0.9
v -1.6 4.4 -1.5
v -0.1 4.4 -1.5
v -0.7 4.6 1.4
v 0.4 4.6 1.4
v -0.7 4.6 0.8
v 0.4 4.6 0.8
v -0.1 4.6 -0.9
v 1.5 4.6 -0.9
v -0.1 4.6 -1.8
v 1.5 4.6 -1.8
v 0.8 4.7 0.8
v 1.5 4.7 0.8
v 0.8 4.7 -0.9
v 1.5 4.7 -0.9
v -0.7 5 0.8
v 0.8 5 0.8
v -0.7 5 -0.9
v 0.8 5 -0.9

# faces
f 3/1/1 2/1/1 1/1/1
f 4/1/1 2/1/1 3/1/1
f 7/1/1 6/1/1 5/1/1
f 8/1/1 6/1/1 7/1/1
f 9/1/1 7/1/1 5/1/1
f 10/1/1 7/1/1 9/1/1
f 13/2/1 12/2/1 11/2/1
f 14/2/1 12/2/1 13/2/1
f 17/2/1 16/2/1 15/2/1
f 19/2/1 17/2/1 15/2/1
f 19/2/1 18/2/1 17/2/1
f 20/2/1 18/2/1 19/2/1
f 23/2/1 22/2/1 21/2/1
f 24/2/1 22/2/1 23/2/1
f 27/2/1 26/2/1 25/2/1
f 29/2/1 27/2/1 25/2/1
f 29/2/1 28/2/1 27/2/1
f 30/2/1 28/2/1 29/2/1
f 33/1/1 32/1/1 31/1/1
f 35/1/1 33/1/1 31/1/1
f 35/1/1 34/1/1 33/1/1
f 36/1/1 34/1/1 35/1/1
f 37/1/1 34/1/1 36/1/1
f 38/1/1 34/1/1 37/1/1
f 41/2/1 40/2/1 39/2/1
f 42/2/1 40/2/1 41/2/1
f 45/2/1 44/2/1 43/2/1
f 47/2/1 45/2/1 43/2/1
f 47/2/1 46/2/1 45/2/1
f 48/2/1 46/2/1 47/2/1
f 49/2/1 46/2/1 48/2/1
f 50/2/1 46/2/1 49/2/1
f 51/2/1 47/2/1 43/2/1
f 52/2/1 47/2/1 51/2/1
f 53/2/1 47/2/1 52/2/1
f 56/2/1 55/2/1 54/2/1
f 57/2/1 55/2/1 56/2/1
f 58/2/1 56/2/1 54/2/1
f 59/2/1 56/2/1 58/2/1
f 62/2/1 61/2/1 60/2/1
f 63/2/1 61/2/1 62/2/1
f 67/1/1 65/1/1 64/1/1
f 68/1/1 67/1/1 66/1/1
f 69/1/1 65/1/1 67/1/1
f 69/1/1 67/1/1 68/1/1
f 72/1/1 71/1/1 70/1/1
f 73/1/1 71/1/1 72/1/1
f 76/1/1 75/1/1 74/1/1
f 77/1/1 75/1/1 76/1/1
f 80/2/1 79/2/1 78/2/1
f 81/2/1 79/2/1 80/2/1
f 82/2/1 79/2/1 81/2/1
f 83/2/1 79/2/1 82/2/1
f 86/1/1 85/1/1 84/1/1
f 87/1/1 85/1/1 86/1/1
f 90/1/1 89/1/1 88/1/1
f 91/1/1 89/1/1 90/1/1
f 93/1/1 89/1/1 91/1/1
f 94/1/1 93/1/1 92/1/1
f 95/1/1 89/1/1 93/1/1
f 95/1/1 93/1/1 94/1/1
f 98/1/1 97/1/1 96/1/1
f 99/1/1 97/1/1 98/1/1
f 102/2/1 101/2/1 100/2/1
f 103/2/1 101/2/1 102/2/1
f 104/2/2 105/2/2 106/2/2
f 104/2/2 106/2/2 108/2/2
f 106/2/2 107/2/2 108/2/2
f 108/2/2 107/2/2 109/2/2
f 110/2/2 111/2/2 112/2/2
f 112/2/2 111/2/2 113/2/2
f 110/2/2 112/2/2 114/2/2
f 114/2/2 112/2/2 115/2/2
f 116/1/2 117/1/2 118/1/2
f 118/1/2 117/1/2 119/1/2
f 120/1/2 121/1/2 122/1/2
f 122/1/2 121/1/2 123/1/2
f 124/2/2 125/2/2 126/2/2
f 126/2/2 125/2/2 127/2/2
f 128/2/2 129/2/2 130/2/2
f 130/2/2 129/2/2 131/2/2
f 132/2/2 133/2/2 134/2/2
f 132/2/2 134/2/2 137/2/2
f 134/2/2 135/2/2 137/2/2
f 137/2/2 135/2/2 138/2/2
f 138/2/2 135/2/2 139/2/2
f 139/2/2 140/2/2 141/2/2
f 138/2/2 139/2/2 141/2/2
f 136/2/2 137/2/2 143/2/2
f 143/2/2 137/2/2 144/2/2
f 141/2/2 142/2/2 145/2/2
f 138/2/2 141/2/2 145/2/2
f 145/2/2 142/2/2 146/2/2
f 147/2/2 148/2/2 149/2/2
f 149/2/2 148/2/2 150/2/2
f 151/2/2 152/2/2 155/2/2
f 155/2/2 152/2/2 156/2/2
f 153/2/2 154/2/2 157/2/2
f 153/2/2 157/2/2 159/2/2
f 157/2/2 158/2/2 159/2/2
f 159/2/2 158/2/2 160/2/2
f 160/2/2 158/2/2 161/2/2
f 161/2/2 158/2/2 162/2/2
f 163/2/2 164/2/2 165/2/2
f 165/2/2 164/2/2 166/2/2
f 163/2/2 165/2/2 167/2/2
f 167/2/2 165/2/2 168/2/2
f 169/2/2 170/2/2 171/2/2
f 169/2/2 171/2/2 173/2/2
f 171/2/2 172/2/2 173/2/2
f 173/2/2 172/2/2 174/2/2
f 174/2/2 172/2/2 175/2/2
f 175/2/2 172/2/2 176/2/2
f 177/1/2 178/1/2 179/1/2
f 179/1/2 178/1/2 180/1/2
f 181/2/2 182/2/2 183/2/2
f 183/2/2 182/2/2 184/2/2
f 184/2/2 182/2/2 185/2/2
f 186/1/2 187/1/2 188/1/2
f 188/1/2 187/1/2 189/1/2
f 186/1/2 188/1/2 190/1/2
f 190/1/2 188/1/2 191/1/2
f 192/1/2 193/1/2 194/1/2
f 194/1/2 193/1/2 195/1/2
f 196/2/2 197/2/2 198/2/2
f 198/2/2 197/2/2 199/2/2
f 200/2/2 201/2/2 202/2/2
f 202/2/2 201/2/2 203/2/2
f 204/2/2 205/2/2 206/2/2
f 206/2/2 205/2/2 207/2/2
f 208/1/2 209/1/2 211/1/2
f 210/1/2 211/1/2 213/1/2
f 211/1/2 209/1/2 214/1/2
f 212/1/2 213/1/2 214/1/2
f 213/1/2 211/1/2 214/1/2
f 214/1/2 209/1/2 215/1/2
f 212/1/2 214/1/2 216/1/2
f 216/1/2 214/1/2 217/1/2
f 218/1/2 219/1/2 220/1/2
f 218/1/2 220/1/2 222/1/2
f 220/1/2 221/1/2 222/1/2
f 222/1/2 221/1/2 223/1/2
f 224/1/2 225/1/2 226/1/2
f 226/1/2 225/1/2 227/1/2
f 230/1/3 229/1/3 228/1/3
f 231/1/3 229/1/3 230/1/3
f 235/1/3 233/1/3 232/1/3
f 236/1/3 235/1/3 234/1/3
f 237/1/3 233/1/3 235/1/3
f 237/1/3 235/1/3 236/1/3
f 240/1/3 239/1/3 238/1/3
f 241/1/3 239/1/3 240/1/3
f 242/1/3 239/1/3 241/1/3
f 245/2/3 244/2/3 243/2/3
f 246/2/3 244/2/3 245/2/3
f 247/2/3 245/2/3 243/2/3
f 248/2/3 245/2/3 247/2/3
f 251/2/3 250/2/3 249/2/3
f 252/2/3 250/2/3 251/2/3
f 256/1/3 254/1/3 253/1/3
f 257/1/3 254/1/3 256/1/3
f 257/1/3 256/1/3 255/1/3
f 258/1/3 254/1/3 257/1/3
f 259/1/3 257/1/3 255/1/3
f 260/1/3 257/1/3 259/1/3
f 263/2/3 262/2/3 261/2/3
f 264/2/3 262/2/3 263/2/3
f 266/2/3 262/2/3 264/2/3
f 267/2/3 266/2/3 265/2/3
f 268/2/3 262/2/3 266/2/3
f 268/2/3 266/2/3 267/2/3
f 269/2/3 267/2/3 265/2/3
f 270/2/3 267/2/3 269/2/3
f 273/1/3 272/1/3 271/1/3
f 274/1/3 272/1/3 273/1/3
f 275/1/3 272/1/3 274/1/3
f 276/1/3 272/1/3 275/1/3
f 279/2/3 278/2/3 277/2/3
f 280/2/3 278/2/3 279/2/3
f 281/2/3 279/2/3 277/2/3
f 282/2/3 279/2/3 281/2/3
f 283/2/3 278/2/3 280/2/3
f 284/2/3 283/2/3 282/2/3
f 285/2/3 278/2/3 283/2/3
f 285/2/3 283/2/3 284/2/3
f 288/2/3 287/2/3 286/2/3
f 289/2/3 287/2/3 288/2/3
f 294/2/3 291/2/3 290/2/3
f 295/2/3 291/2/3 294/2/3
f 296/2/3 293/2/3 292/2/3
f 298/2/3 297/2/3 296/2/3
f 298/2/3 296/2/3 292/2/3
f 299/2/3 297/2/3 298/2/3
f 302/2/3 301/2/3 300/2/3
f 303/2/3 301/2/3 302/2/3
f 306/1/3 305/1/3 304/1/3
f 308/1/3 307/1/3 306/1/3
f 310/1/3 306/1/3 304/1/3
f 310/1/3 309/1/3 308/1/3
f 310/1/3 308/1/3 306/1/3
f 311/1/3 309/1/3 310/1/3
f 314/2/3 313/2/3 312/2/3
f 315/2/3 313/2/3 314/2/3
f 317/2/3 314/2/3 312/2/3
f 318/2/3 317/2/3 316/2/3
f 319/2/3 314/2/3 317/2/3
f 319/2/3 317/2/3 318/2/3
f 322/1/3 321/1/3 320/1/3
f 323/1/3 321/1/3 322/1/3
f 328/2/3 325/2/3 324/2/3
f 329/2/3 325/2/3 328/2/3
f 330/2/3 327/2/3 326/2/3
f 332/2/3 330/2/3 326/2/3
f 332/2/3 331/2/3 330/2/3
f 333/2/3 331/2/3 332/2/3
f 336/2/3 335/2/3 334/2/3
f 337/2/3 335/2/3 336/2/3
f 340/1/3 339/1/3 338/1/3
f 341/1/3 339/1/3 340/1/3
f 342/2/4 343/2/4 344/2/4
f 344/2/4 343/2/4 345/2/4
f 346/1/4 347/1/4 348/1/4
f 348/1/4 347/1/4 349/1/4
f 350/1/4 351/1/4 352/1/4
f 352/1/4 351/1/4 353/1/4
f 354/2/4 355/2/4 356/2/4
f 356/2/4 355/2/4 357/2/4
f 358/1/4 359/1/4 360/1/4
f 360/1/4 359/1/4 361/1/4
f 362/2/4 363/2/4 364/2/4
f 362/2/4 364/2/4 367/2/4
f 364/2/4 365/2/4 367/2/4
f 367/2/4 365/2/4 368/2/4
f 368/2/4 365/2/4 369/2/4
f 366/2/4 367/2/4 372/2/4
f 367/2/4 368/2/4 372/2/4
f 372/2/4 368/2/4 373/2/4
f 373/2/4 368/2/4 374/2/4
f 374/2/4 368/2/4 375/2/4
f 370/1/4 371/1/4 376/1/4
f 376/1/4 371/1/4 377/1/4
f 378/1/4 379/1/4 380/1/4
f 380/1/4 379/1/4 381/1/4
f 382/2/4 383/2/4 384/2/4
f 384/2/4 383/2/4 385/2/4
f 385/2/4 383/2/4 386/2/4
f 386/2/4 383/2/4 387/2/4
f 388/2/4 389/2/4 390/2/4
f 388/2/4 390/2/4 392/2/4
f 390/2/4 391/2/4 392/2/4
f 392/2/4 391/2/4 393/2/4
f 394/2/4 395/2/4 396/2/4
f 396/2/4 395/2/4 397/2/4
f 397/2/4 395/2/4 399/2/4
f 398/2/4 399/2/4 400/2/4
f 399/2/4 395/2/4 401/2/4
f 400/2/4 399/2/4 401/2/4
f 402/2/4 403/2/4 404/2/4
f 404/2/4 403/2/4 405/2/4
f 402/2/4 404/2/4 407/2/4
f 406/2/4 407/2/4 408/2/4
f 407/2/4 404/2/4 409/2/4
f 408/2/4 407/2/4 409/2/4
f 406/2/4 408/2/4 410/2/4
f 410/2/4 408/2/4 411/2/4
f 409/2/4 404/2/4 412/2/4
f 412/2/4 404/2/4 413/2/4
f 409/2/4 412/2/4 414/2/4
f 414/2/4 412/2/4 415/2/4
f 406/2/4 410/2/4 416/2/4
f 406/2/4 416/2/4 418/2/4
f 416/2/4 417/2/4 418/2/4
f 418/2/4 417/2/4 419/2/4
f 420/2/4 421/2/4 422/2/4
f 422/2/4 421/2/4 423/2/4
f 424/1/4 425/1/4 426/1/4
f 426/1/4 425/1/4 427/1/4
f 427/1/4 425/1/4 430/1/4
f 430/1/4 425/1/4 431/1/4
f 428/1/4 429/1/4 432/1/4
f 427/1/4 430/1/4 434/1/4
f 434/1/4 430/1/4 435/1/4
f 432/1/4 433/1/4 436/1/4
f 428/1/4 432/1/4 436/1/4
f 436/1/4 433/1/4 437/1/4
f 438/2/4 439/2/4 440/2/4
f 440/2/4 439/2/4 441/2/4
f 442/2/4 443/2/4 444/2/4
f 444/2/4 443/2/4 445/2/4
f 446/1/4 447/1/4 448/1/4
f 448/1/4 447/1/4 449/1/4
f 449/1/4 447/1/4 450/1/4
f 451/1/4 452/1/4 453/1/4
f 453/1/4 452/1/4 454/1/4
f 458/2/5 456/2/5 455/2/5
f 459/2/5 456/2/5 458/2/5
f 462/2/5 458/2/5 457/2/5
f 462/2/5 460/2/5 459/2/5
f 462/2/5 459/2/5 458/2/5
f 463/2/5 460/2/5 462/2/5
f 464/2/5 460/2/5 463/2/5
f 465/2/5 462/2/5 461/2/5
f 465/2/5 463/2/5 462/2/5
f 466/2/5 463/2/5 465/2/5
f 467/2/5 463/2/5 466/2/5
f 468/2/5 463/2/5 467/2/5
f 469/2/5 467/2/5 466/2/5
f 470/2/5 467/2/5 469/2/5
f 473/2/5 472/2/5 471/2/5
f 474/2/5 472/2/5 473/2/5
f 476/2/5 475/2/5 474/2/5
f 477/2/5 475/2/5 476/2/5
f 480/2/5 479/2/5 478/2/5
f 482/2/5 480/2/5 478/2/5
f 482/2/5 481/2/5 480/2/5
f 483/2/5 481/2/5 482/2/5
f 488/1/5 485/1/5 484/1/5
f 489/1/5 485/1/5 488/1/5
f 490/2/5 487/2/5 486/2/5
f 491/2/5 487/2/5 490/2/5
f 492/1/5 488/1/5 484/1/5
f 493/1/5 485/1/5 489/1/5
f 494/1/5 492/1/5 484/1/5
f 494/1/5 493/1/5 492/1/5
f 495/1/5 485/1/5 493/1/5
f 495/1/5 493/1/5 494/1/5
f 498/2/5 497/2/5 496/2/5
f 499/2/5 497/2/5 498/2/5
f 502/2/5 501/2/5 500/2/5
f 503/2/5 501/2/5 502/2/5
f 504/2/5 502/2/5 500/2/5
f 505/2/5 502/2/5 504/2/5
f 508/2/5 507/2/5 506/2/5
f 509/2/5 507/2/5 508/2/5
f 512/1/5 511/1/5 510/1/5
f 513/1/5 511/1/5 512/1/5
f 514/1/5 512/1/5 510/1/5
f 515/1/5 511/1/5 513/1/5
f 516/1/5 514/1/5 510/1/5
f 516/1/5 515/1/5 514/1/5
f 517/1/5 515/1/5 516/1/5
f 518/1/5 511/1/5 515/1/5
f 518/1/5 515/1/5 517/1/5
f 519/1/5 511/1/5 518/1/5
f 520/1/5 511/1/5 519/1/5
f 523/1/5 522/1/5 521/1/5
f 524/1/5 522/1/5 523/1/5
f 525/1/5 522/1/5 524/1/5
f 526/1/5 522/1/5 525/1/5
f 529/2/5 528/2/5 527/2/5
f 530/2/5 528/2/5 529/2/5
f 533/1/5 532/1/5 531/1/5
f 535/1/5 534/1/5 533/1/5
f 537/1/5 535/1/5 533/1/5
f 537/1/5 536/1/5 535/1/5
f 538/1/5 536/1/5 537/1/5
f 539/1/5 537/1/5 533/1/5
f 540/1/5 536/1/5 538/1/5
f 541/1/5 533/1/5 531/1/5
f 541/1/5 540/1/5 539/1/5
f 541/1/5 539/1/5 533/1/5
f 542/1/5 536/1/5 540/1/5
f 542/1/5 540/1/5 541/1/5
f 546/1/5 544/1/5 543/1/5
f 547/1/5 544/1/5 546/1/5
f 547/1/5 546/1/5 545/1/5
f 548/1/5 544/1/5 547/1/5
f 549/1/5 544/1/5 548/1/5
f 551/1/5 547/1/5 545/1/5
f 552/1/5 550/1/5 549/1/5
f 552/1/5 549/1/5 548/1/5
f 553/1/5 551/1/5 545/1/5
f 553/1/5 552/1/5 551/1/5
f 554/1/5 552/1/5 553/1/5
f 555/1/5 550/1/5 552/1/5
f 555/1/5 552/1/5 554/1/5
f 558/1/5 557/1/5 556/1/5
f 560/1/5 558/1/5 556/1/5
f 560/1/5 559/1/5 558/1/5
f 561/1/5 559/1/5 560/1/5
f 562/1/5 560/1/5 556/1/5
f 563/1/5 560/1/5 562/1/5
f 564/2/6 565/2/6 566/2/6
f 566/2/6 565/2/6 567/2/6
f 567/2/6 565/2/6 568/2/6
f 569/2/6 570/2/6 571/2/6
f 571/2/6 570/2/6 572/2/6
f 573/2/6 574/2/6 575/2/6
f 575/2/6 574/2/6 576/2/6
f 577/2/6 578/2/6 581/2/6
f 579/2/6 580/2/6 582/2/6
f 577/2/6 581/2/6 583/2/6
f 581/2/6 582/2/6 583/2/6
f 582/2/6 580/2/6 584/2/6
f 583/2/6 582/2/6 584/2/6
f 585/2/6 586/2/6 587/2/6
f 587/2/6 586/2/6 588/2/6
f 588/2/6 586/2/6 589/2/6
f 589/2/6 586/2/6 590/2/6
f 585/2/6 587/2/6 591/2/6
f 585/2/6 591/2/6 593/2/6
f 591/2/6 592/2/6 593/2/6
f 593/2/6 592/2/6 594/2/6
f 595/2/6 596/2/6 598/2/6
f 597/2/6 598/2/6 599/2/6
f 598/2/6 596/2/6 600/2/6
f 599/2/6 598/2/6 600/2/6
f 601/2/6 602/2/6 603/2/6
f 603/2/6 602/2/6 604/2/6
f 605/2/6 606/2/6 608/2/6
f 607/2/6 608/2/6 609/2/6
f 608/2/6 606/2/6 610/2/6
f 609/2/6 608/2/6 610/2/6
f 611/2/6 612/2/6 613/2/6
f 613/2/6 612/2/6 614/2/6
f 614/2/6 612/2/6 615/2/6
f 615/2/6 612/2/6 616/2/6
f 617/2/6 618/2/6 619/2/6
f 617/2/6 619/2/6 621/2/6
f 619/2/6 620/2/6 621/2/6
f 621/2/6 620/2/6 622/2/6
f 622/2/6 620/2/6 623/2/6
f 623/2/6 620/2/6 624/2/6
f 625/2/6 626/2/6 627/2/6
f 627/2/6 626/2/6 628/2/6
f 629/1/6 630/1/6 633/1/6
f 631/1/6 632/1/6 636/1/6
f 633/1/6 634/1/6 637/1/6
f 629/1/6 633/1/6 637/1/6
f 637/1/6 634/1/6 638/1/6
f 629/1/6 637/1/6 639/1/6
f 639/1/6 637/1/6 640/1/6
f 635/1/6 636/1/6 641/1/6
f 636/1/6 632/1/6 642/1/6
f 641/1/6 636/1/6 642/1/6
f 643/1/6 644/1/6 645/1/6
f 645/1/6 644/1/6 646/1/6
f 643/1/6 645/1/6 647/1/6
f 647/1/6 645/1/6 648/1/6
f 643/1/6 647/1/6 649/1/6
f 649/1/6 647/1/6 650/1/6
f 651/1/6 652/1/6 653/1/6
f 653/1/6 652/1/6 654/1/6
f 654/1/6 652/1/6 655/1/6
f 655/1/6 652/1/6 656/1/6
f 656/1/6 652/1/6 657/1/6
f 658/1/6 659/1/6 660/1/6
f 658/1/6 660/1/6 662/1/6
f 660/1/6 661/1/6 662/1/6
f 662/1/6 661/1/6 663/1/6
f 664/1/6 665/1/6 666/1/6
f 666/1/6 665/1/6 667/1/6
f 668/1/6 669/1/6 670/1/6
f 670/1/6 669/1/6 671/1/6
f 672/1/6 673/1/6 674/1/6
f 674/1/6 673/1/6 675/1/6
f 676/1/6 677/1/6 678/1/6
f 678/1/6 677/1/6 679/1/6
